<?xml version="1.0" encoding="utf-8"?>
<!-- Svg Vector Icons : http://www.onlinewebfonts.com/icon -->
<!DOCTYPE svg PUBLIC "-//W3C//DTD SVG 1.1//EN" "http://www.w3.org/Graphics/SVG/1.1/DTD/svg11.dtd">
<svg version="1.1" xmlns="http://www.w3.org/2000/svg" xmlns:xlink="http://www.w3.org/1999/xlink" x="0px" y="0px" viewBox="0 0 1000 1000" enable-background="new 0 0 1000 1000" xml:space="preserve">
<metadata> Svg Vector Icons : http://www.onlinewebfonts.com/icon </metadata>
<g><g transform="translate(0.000000,511.000000) scale(0.100000,-0.100000)"><path d="M4494.4,4984.2c-1647-186.5-2952.8-1228.6-3230-2579.7c-40-191.9-48-333.1-42.6-599.6l10.7-349.1L1943.9-1068c391.8-1388.4,727.6-2598.4,746.2-2691.7c48-221.2,93.3-303.8,250.5-450.4c165.2-154.6,322.5-245.2,597-346.5c855.5-311.8,2068-311.8,2934.2,2.7c455.7,165.2,724.9,399.7,820.8,714.2c32,101.3,375.8,1329.8,764.9,2726.3l708.9,2542.4l10.7,333.1c8,189.2-2.7,418.4-18.7,533c-191.9,1207.2-1225.9,2217.3-2635.7,2574.4C5613.7,5000.2,5006,5042.8,4494.4,4984.2z M5802.9,4509.8c1119.3-226.5,2033.4-900.8,2390.5-1766.9c85.3-205.2,157.2-490.4,133.2-517c-8-8-77.3,16-154.6,56c-490.4,247.8-1457.8,434.4-2571.7,493c-1383.1,74.6-2968.8-125.3-3709.7-466.4c-111.9-50.6-210.5-87.9-215.9-80c-29.3,26.7,74.6,391.8,165.2,586.3c258.5,557,727.5,1026,1351.2,1345.8c405.1,207.9,807.5,325.1,1396.5,410.4C4782.2,4600.4,5555,4560.5,5802.9,4509.8z M6223.9,2308.6c767.5-82.6,1479.1-250.5,1846.9-437.1c394.4-199.9,381.1-378.4-45.3-575.6c-357.1-167.9-876.8-298.5-1540.4-389.1c-514.4-69.3-1868.2-98.6-2430.5-53.3c-783.5,64-1465.7,197.2-1924.1,375.8c-541,207.9-626.3,405.1-266.5,610.3c415.8,237.2,1377.8,442.4,2379.9,509C4710.2,2380.5,5754.9,2356.5,6223.9,2308.6z M2210.4,757.5c314.5-106.6,906.1-229.2,1431.1-293.1c306.5-37.3,589-48,1359.2-48c770.2,0,1052.7,10.7,1359.2,48c535.7,66.6,1119.3,186.6,1444.4,298.5c391.8,135.9,370.4,130.6,354.4,90.6c-8-21.3-301.1-1079.3-652.9-2355.9c-727.5-2630.4-639.6-2409.2-1010-2582.4c-644.9-303.8-1700.3-370.4-2531.7-159.9c-279.8,69.3-650.3,237.2-740.9,335.8c-34.6,37.3-101.3,218.5-175.9,487.7C2564.9-1715.6,1856,829.5,1856,856.1c0,21.3,16,24,48,13.3C1928,856.1,2066.5,808.2,2210.4,757.5z"/></g></g>
</svg>